<?xml version="1.0" encoding="utf-8"?>
<!-- Generator: Adobe Illustrator 15.1.0, SVG Export Plug-In . SVG Version: 6.00 Build 0)  -->
<!DOCTYPE svg PUBLIC "-//W3C//DTD SVG 1.1//EN" "http://www.w3.org/Graphics/SVG/1.1/DTD/svg11.dtd">
<svg version="1.1" id="Layer_1" xmlns="http://www.w3.org/2000/svg" xmlns:xlink="http://www.w3.org/1999/xlink" x="0px" y="0px"
	 width="25px" height="25px" viewBox="0 0 25 25" enable-background="new 0 0 25 25" xml:space="preserve">
<g>
	<g>
		<path fill="#63C6D6" d="M18,11c-1.19,0-2.312,0.299-3.293,0.824l-1.584-0.951C14.258,9.956,15,8.57,15,7V5c0-2.757-2.243-5-5-5
			S5,2.243,5,5v2c0,1.57,0.742,2.956,1.877,3.873l-5.163,3.098C0.772,14.537,0,15.9,0,17v2c0,1.1,0.9,2,2,2h9.683
			c1.125,2.362,3.527,4,6.317,4c3.866,0,7-3.135,7-7S21.866,11,18,11z M7,5c0-1.654,1.346-3,3-3s3,1.346,3,3v2c0,1.654-1.346,3-3,3
			S7,8.654,7,7V5z M2,19v-2c0-0.397,0.403-1.109,0.744-1.314l6.304-3.782C9.356,11.964,9.674,12,10,12s0.644-0.036,0.953-0.096
			l2.032,1.219C11.758,14.384,11,16.103,11,18c0,0.341,0.033,0.673,0.08,1H2z M18,23c-2.757,0-5-2.243-5-5s2.243-5,5-5s5,2.243,5,5
			S20.757,23,18,23z"/>
		<path fill="#63C6D6" d="M20,17h-1v-2c0-0.553-0.447-1-1-1s-1,0.447-1,1v3c0,0.553,0.447,1,1,1h2c0.553,0,1-0.447,1-1
			S20.553,17,20,17z"/>
	</g>
</g>
</svg>
