<?xml version="1.0" encoding="utf-8"?>
<!-- Generator: Adobe Illustrator 15.1.0, SVG Export Plug-In . SVG Version: 6.00 Build 0)  -->
<!DOCTYPE svg PUBLIC "-//W3C//DTD SVG 1.1//EN" "http://www.w3.org/Graphics/SVG/1.1/DTD/svg11.dtd">
<svg version="1.1" id="Layer_1" xmlns="http://www.w3.org/2000/svg" xmlns:xlink="http://www.w3.org/1999/xlink" x="0px" y="0px"
	 width="25px" height="25px" viewBox="0 0 25 25" enable-background="new 0 0 25 25" xml:space="preserve">
<g>
	<g>
		<path fill="#364656" d="M23,4h-3V1c0-0.552-0.447-1-1-1s-1,0.448-1,1v3H8V1c0-0.552-0.447-1-1-1S6,0.448,6,1v3H3C1.9,4,1,4.9,1,6
			v16c0,1.1,0.9,2,2,2h20c1.1,0,2-0.9,2-2V6C25,4.9,24.1,4,23,4z M23,22H3V6h20V22z"/>
		<path fill="#364656" d="M11.033,13.384c0.205-0.071,0.387-0.16,0.547-0.269c0.159-0.107,0.294-0.238,0.404-0.394
			c0.109-0.155,0.191-0.337,0.245-0.548c0.054-0.209,0.081-0.453,0.081-0.732c0-0.306-0.059-0.596-0.176-0.871
			c-0.118-0.274-0.291-0.517-0.521-0.727c-0.229-0.21-0.51-0.375-0.843-0.497s-0.716-0.183-1.149-0.183
			c-0.398,0-0.771,0.053-1.119,0.159S7.846,9.591,7.576,9.809c-0.27,0.218-0.496,0.49-0.68,0.813
			c-0.184,0.324-0.307,0.706-0.369,1.146l0.984,0.179c0.254,0.04,0.448,0.022,0.583-0.05c0.135-0.074,0.245-0.221,0.331-0.443
			c0.07-0.221,0.2-0.405,0.39-0.552s0.423-0.22,0.7-0.22c0.34,0,0.593,0.094,0.759,0.282s0.249,0.456,0.249,0.804
			c0,0.171-0.02,0.327-0.06,0.47S10.342,12.5,10.217,12.6c-0.124,0.099-0.198,0.177-0.425,0.234C9.563,12.891,9,12.92,9,12.92v1.254
			c0,0,0.679,0.028,0.925,0.085c0.244,0.057,0.376,0.14,0.498,0.249c0.12,0.109,0.168,0.239,0.197,0.39
			c0.027,0.15,0.028,0.319,0.028,0.507c0,0.141-0.033,0.281-0.085,0.422s-0.133,0.266-0.234,0.375s-0.231,0.199-0.386,0.27
			s-0.335,0.105-0.542,0.105c-0.273,0-0.512-0.074-0.715-0.223s-0.395-0.389-0.575-0.721c-0.078-0.145-0.21-0.237-0.396-0.278
			s-0.386-0.019-0.601,0.067l-0.826,0.334c0.141,0.406,0.306,0.758,0.495,1.055s0.41,0.54,0.662,0.729s0.541,0.329,0.867,0.419
			s0.696,0.135,1.11,0.135c0.402,0,0.79-0.057,1.163-0.17s0.7-0.284,0.981-0.513s0.506-0.515,0.674-0.858s0.252-0.748,0.252-1.213
			C12.492,14.369,12.006,13.717,11.033,13.384z"/>
		<path fill="#364656" d="M18,9h-1.717l-2.725,2.403l0.592,0.841c0.027,0.043,0.071,0.114,0.132,0.15
			c0.061,0.037,0.129,0.078,0.205,0.092s0.156,0.021,0.24,0.008s0.171-0.049,0.261-0.115l1.01-0.822
			C15.986,11.795,16,12.022,16,12.236V17h-2v1h5v-1h-1V9z"/>
	</g>
</g>
</svg>
