<?xml version="1.0" encoding="utf-8"?>
<!-- Generator: Adobe Illustrator 15.1.0, SVG Export Plug-In . SVG Version: 6.00 Build 0)  -->
<!DOCTYPE svg PUBLIC "-//W3C//DTD SVG 1.1//EN" "http://www.w3.org/Graphics/SVG/1.1/DTD/svg11.dtd">
<svg version="1.1" id="Layer_1" xmlns="http://www.w3.org/2000/svg" xmlns:xlink="http://www.w3.org/1999/xlink" x="0px" y="0px"
	 width="25px" height="25px" viewBox="0 0 25 25" enable-background="new 0 0 25 25" xml:space="preserve">
<g>
	<g>
		<path fill="#63C6D6" d="M14,2c0.148,0,0.402,0.208,0.432,0.354l0.215,1.078C15.047,5.433,16.959,7,19,7h2v15H4V7h2
			c2.041,0,3.953-1.568,4.354-3.569l0.215-1.077C10.598,2.208,10.852,2,11,2H14 M14,0h-3C9.9,0,8.824,0.883,8.607,1.961L8.393,3.039
			C8.177,4.117,7.101,5,6,5H4C2.9,5,2,5.9,2,7v15c0,1.1,0.9,2,2,2h17c1.1,0,2-0.9,2-2V7c0-1.1-0.9-2-2-2h-2
			c-1.1,0-2.176-0.883-2.393-1.961l-0.215-1.078C16.176,0.883,15.1,0,14,0L14,0z"/>
	</g>
	<g>
		<path fill="#63C6D6" d="M18,12H7c-0.553,0-1-0.447-1-1s0.447-1,1-1h11c0.553,0,1,0.447,1,1S18.553,12,18,12z"/>
	</g>
	<g>
		<path fill="#63C6D6" d="M16,16H7c-0.553,0-1-0.447-1-1s0.447-1,1-1h9c0.553,0,1,0.447,1,1S16.553,16,16,16z"/>
	</g>
</g>
</svg>
