<?xml version="1.0" encoding="utf-8"?>
<!-- Generator: Adobe Illustrator 15.1.0, SVG Export Plug-In . SVG Version: 6.00 Build 0)  -->
<!DOCTYPE svg PUBLIC "-//W3C//DTD SVG 1.1//EN" "http://www.w3.org/Graphics/SVG/1.1/DTD/svg11.dtd">
<svg version="1.1" id="Layer_1" xmlns="http://www.w3.org/2000/svg" xmlns:xlink="http://www.w3.org/1999/xlink" x="0px" y="0px"
	 width="25px" height="25px" viewBox="0 0 25 25" enable-background="new 0 0 25 25" xml:space="preserve">
<g>
	<g>
		<path fill="#E8F1F7" d="M24.573,9.181L13,0.779L1.427,9.181c-0.453,0.317-0.563,0.94-0.246,1.393
			c0.317,0.454,0.94,0.563,1.393,0.246L3,10.508V22c0,1.654,1.346,3,3,3h14c1.654,0,3-1.346,3-3V10.508l0.427,0.311
			C23.602,10.941,23.801,11,23.999,11c0.315,0,0.626-0.148,0.82-0.427C25.136,10.121,25.025,9.498,24.573,9.181z M21,22
			c0,0.551-0.449,1-1,1H6c-0.551,0-1-0.449-1-1V9.051l8-5.83l8,5.83V22z"/>
		<path fill="#E8F1F7" d="M11,11v2H9c-1.1,0-2,0.9-2,2s0.9,2,2,2h2v2c0,1.1,0.9,2,2,2c1.1,0,2-0.9,2-2v-2h2c1.1,0,2-0.9,2-2
			s-0.9-2-2-2h-2v-2c0-1.1-0.9-2-2-2C11.9,9,11,9.9,11,11z"/>
	</g>
</g>
</svg>
