<?xml version="1.0" encoding="utf-8"?>
<!-- Generator: Adobe Illustrator 15.1.0, SVG Export Plug-In . SVG Version: 6.00 Build 0)  -->
<!DOCTYPE svg PUBLIC "-//W3C//DTD SVG 1.1//EN" "http://www.w3.org/Graphics/SVG/1.1/DTD/svg11.dtd">
<svg version="1.1" id="Layer_1" xmlns="http://www.w3.org/2000/svg" xmlns:xlink="http://www.w3.org/1999/xlink" x="0px" y="0px"
	 width="25px" height="25px" viewBox="0 0 25 25" enable-background="new 0 0 25 25" xml:space="preserve">
<g>
	<path fill="#E8F1F7" d="M12,25c-1.654,0-3-1.346-3-3v-0.523c-0.298-0.104-0.59-0.225-0.873-0.361l-0.369,0.37
		c-1.131,1.13-3.113,1.13-4.242,0c-1.17-1.17-1.171-3.073-0.001-4.243l0.37-0.369C3.748,16.59,3.628,16.298,3.523,16H3
		c-1.654,0-3-1.346-3-3s1.346-3,3-3h0.523c0.104-0.298,0.225-0.589,0.361-0.873l-0.37-0.369c-1.17-1.17-1.17-3.073,0-4.243
		c1.131-1.131,3.112-1.13,4.243,0l0.369,0.37C8.41,4.749,8.702,4.628,9,4.523V4c0-1.654,1.346-3,3-3s3,1.346,3,3v0.523
		c0.298,0.105,0.59,0.226,0.873,0.361l0.369-0.37c1.131-1.13,3.113-1.13,4.242,0c1.17,1.17,1.171,3.073,0.001,4.243l-0.37,0.37
		c0.137,0.284,0.257,0.575,0.361,0.873H21c1.654,0,3,1.346,3,3s-1.346,3-3,3h-0.523c-0.104,0.298-0.225,0.59-0.361,0.873l0.37,0.369
		c1.17,1.17,1.17,3.073,0,4.242c-1.131,1.131-3.112,1.131-4.243,0.001l-0.369-0.37c-0.283,0.137-0.575,0.257-0.873,0.361V22
		C15,23.654,13.654,25,12,25z M7.783,18.631l0.668,0.395c0.559,0.33,1.164,0.58,1.799,0.744L11,19.963V22c0,0.551,0.449,1,1,1
		s1-0.449,1-1v-2.037l0.75-0.193c0.635-0.164,1.24-0.414,1.799-0.744l0.668-0.395l1.44,1.44c0.374,0.374,1.038,0.374,1.413,0
		c0.391-0.39,0.391-1.024,0.001-1.415l-1.44-1.439l0.395-0.668c0.33-0.559,0.58-1.164,0.744-1.799L18.963,14H21c0.551,0,1-0.449,1-1
		s-0.449-1-1-1h-2.037l-0.193-0.75c-0.164-0.635-0.414-1.24-0.744-1.799l-0.395-0.668l1.44-1.44c0.39-0.389,0.39-1.024,0-1.414
		c-0.375-0.375-1.04-0.375-1.415,0L16.217,7.37l-0.668-0.395c-0.559-0.33-1.164-0.581-1.799-0.745L13,6.037V4c0-0.551-0.449-1-1-1
		s-1,0.449-1,1v2.037L10.25,6.23C9.615,6.395,9.01,6.645,8.451,6.975L7.783,7.37l-1.44-1.441c-0.374-0.374-1.038-0.374-1.413,0
		c-0.391,0.39-0.391,1.025-0.001,1.415l1.44,1.44L5.975,9.451c-0.33,0.559-0.58,1.164-0.744,1.799L5.037,12H3c-0.551,0-1,0.449-1,1
		s0.449,1,1,1h2.037l0.193,0.75c0.164,0.635,0.414,1.24,0.744,1.799l0.395,0.668l-1.44,1.44c-0.39,0.39-0.39,1.024,0,1.413
		c0.375,0.375,1.04,0.375,1.415,0.001L7.783,18.631z"/>
</g>
<g>
	<path fill="#E8F1F7" d="M12,18c-2.757,0-5-2.243-5-5s2.243-5,5-5s5,2.243,5,5S14.757,18,12,18z M12,10c-1.654,0-3,1.346-3,3
		s1.346,3,3,3s3-1.346,3-3S13.654,10,12,10z"/>
</g>
</svg>
