<?xml version="1.0" encoding="utf-8"?>
<!-- Generator: Adobe Illustrator 15.1.0, SVG Export Plug-In . SVG Version: 6.00 Build 0)  -->
<!DOCTYPE svg PUBLIC "-//W3C//DTD SVG 1.1//EN" "http://www.w3.org/Graphics/SVG/1.1/DTD/svg11.dtd">
<svg version="1.1" id="Layer_1" xmlns="http://www.w3.org/2000/svg" xmlns:xlink="http://www.w3.org/1999/xlink" x="0px" y="0px"
	 width="25px" height="25px" viewBox="0 0 25 25" enable-background="new 0 0 25 25" xml:space="preserve">
<g>
	<path fill="#364656" d="M6,7h9c0.553,0,1-0.448,1-1s-0.447-1-1-1H6C5.447,5,5,5.448,5,6S5.447,7,6,7z"/>
	<path fill="#364656" d="M15,11c0.553,0,1-0.448,1-1s-0.447-1-1-1H6c-0.553,0-1,0.448-1,1s0.447,1,1,1H15z"/>
	<path fill="#364656" d="M24.016,10.484c0.018-0.756-0.285-1.486-0.854-2.055C22.32,7.588,21.06,7.372,20,7.787V2.5
		C20,1.4,19.1,1,18,1H3C1.9,1,1,1.4,1,2.5v17C1,20.6,1.9,22,3,22h4v3h3.873l2.996-3H18c1.1,0,2-1.4,2-2.5v-3.64l3.116-3.12
		C23.678,12.178,23.997,11.216,24.016,10.484z M3,3h15v6.456L7.616,20H3V3z M18,20h-2.134L18,17.863V20z M21.709,11.318L10.056,23H9
		v-1.555L20.426,9.875c0.379-0.38,0.941-0.349,1.322,0.031c0.183,0.183,0.272,0.445,0.268,0.654
		C22.01,10.776,21.898,11.129,21.709,11.318z"/>
</g>
</svg>
