<?xml version="1.0" encoding="utf-8"?>
<!-- Generator: Adobe Illustrator 15.1.0, SVG Export Plug-In . SVG Version: 6.00 Build 0)  -->
<!DOCTYPE svg PUBLIC "-//W3C//DTD SVG 1.1//EN" "http://www.w3.org/Graphics/SVG/1.1/DTD/svg11.dtd">
<svg version="1.1" id="Layer_1" xmlns="http://www.w3.org/2000/svg" xmlns:xlink="http://www.w3.org/1999/xlink" x="0px" y="0px"
	 width="25px" height="25px" viewBox="0 0 25 25" enable-background="new 0 0 25 25" xml:space="preserve">
<g>
	<path fill="#FFFFFF" d="M11,18H4c-1,0-1-0.451-1-0.6V17c0-0.75,0.586-1.785,1.229-2.172l5.185-3.11C9.915,11.887,10.442,12,11,12
		c0.506,0,0.985-0.098,1.446-0.238l3.25,1.901c0.477,0.28,1.09,0.118,1.368-0.358s0.118-1.089-0.358-1.368l-2.267-1.324
		C15.396,9.701,16,8.423,16,7V5c0-2.757-2.243-5-5-5S6,2.243,6,5v2c0,1.385,0.567,2.639,1.48,3.545L3.2,13.113
		C1.946,13.867,1,15.537,1,17v0.4C1,18.955,2.206,20,4,20h7c0.552,0,1-0.447,1-1S11.552,18,11,18z M8,5c0-1.654,1.346-3,3-3
		s3,1.346,3,3v2c0,1.654-1.346,3-3,3S8,8.654,8,7V5z"/>
	<path fill="#FFFFFF" d="M24,18h-4v-4c0-0.553-0.447-1-1-1s-1,0.447-1,1v4h-4c-0.553,0-1,0.447-1,1s0.447,1,1,1h4v4
		c0,0.553,0.447,1,1,1s1-0.447,1-1v-4h4c0.553,0,1-0.447,1-1S24.553,18,24,18z"/>
</g>
</svg>
