<?xml version="1.0" encoding="utf-8"?>
<!-- Generator: Adobe Illustrator 15.1.0, SVG Export Plug-In . SVG Version: 6.00 Build 0)  -->
<!DOCTYPE svg PUBLIC "-//W3C//DTD SVG 1.1//EN" "http://www.w3.org/Graphics/SVG/1.1/DTD/svg11.dtd">
<svg version="1.1" id="Layer_1" xmlns="http://www.w3.org/2000/svg" xmlns:xlink="http://www.w3.org/1999/xlink" x="0px" y="0px"
	 width="16px" height="16px" viewBox="-0.521 -0.5 16 16" enable-background="new -0.521 -0.5 16 16" xml:space="preserve">
<g>
	<path fill-rule="evenodd" clip-rule="evenodd" d="M13.48-0.5H6.479v4.613C7.077,3.716,7.773,3.47,8.527,3.47
		c2.166,0,3.922,1.942,3.922,4.108c0,2.166-1.756,3.921-3.922,3.921c-0.754,0-1.451-0.223-2.048-0.592V15.5h7.001
		c1.104,0,2-0.896,2-2v-12C15.48,0.396,14.584-0.5,13.48-0.5z"/>
	<path fill-rule="evenodd" clip-rule="evenodd" d="M11.496,7.48c0-1.66-1.348-3.008-3.008-3.008c-0.893,0-1.686,0.397-2.237,1.016
		H5.479l0-5.988h-4c-1.104,0-2,0.896-2,2v12c0,1.104,0.895,2,2,2h4l0-6.012h0.784c0.551,0.609,1.339,1,2.225,1
		C10.148,10.488,11.496,9.141,11.496,7.48z"/>
</g>
</svg>
