<?xml version="1.0" encoding="utf-8"?>
<!-- Generator: Adobe Illustrator 15.1.0, SVG Export Plug-In . SVG Version: 6.00 Build 0)  -->
<!DOCTYPE svg PUBLIC "-//W3C//DTD SVG 1.1//EN" "http://www.w3.org/Graphics/SVG/1.1/DTD/svg11.dtd">
<svg version="1.1" id="Layer_1" xmlns="http://www.w3.org/2000/svg" xmlns:xlink="http://www.w3.org/1999/xlink" x="0px" y="0px"
	 width="16px" height="16px" viewBox="0 0 16 16" enable-background="new 0 0 16 16" xml:space="preserve">
<path d="M4.579,16c0-0.477,0.086-1.452,1.192-1.915c0.945-0.396,1.802,0.308,3.83-0.249c2.187-0.6,2.504-3.313,4.131-3.313
	c0.947,0,1.209-0.407,1.209-1.099c0-0.621-0.767-0.821-1.104-0.839c-2.527-0.139-3.32,3.224-4.954,3.438
	c-0.797,0.105-1.339-0.13-1.637-0.715C6.896,10.626,7.216,9.86,7.627,9.486c0.808-0.735,3.455-1.211,4.634-3.46
	c0.456-0.87,0.794-2.631,0.856-2.941c0.104-0.518,0.373-0.973,0.994-1.167c0.967-0.304,1.014-0.718,0.932-1.236
	c-0.102-0.632-0.617-0.761-1.162-0.642c-1.388,0.307-1.961,1.24-2.297,1.844c-0.334,0.607-0.752,2.189-0.87,2.458
	c-0.487,1.108-1.37,1.605-2.21,1.298c-0.87-0.318-0.905-1.622-0.359-2.708C8.286,2.652,9.703,1.739,8.399,1.23
	C7.907,1.038,7.126,1.438,6.937,1.749C6.573,2.344,6.25,3.13,6.128,3.99C5.942,5.315,6.492,6.418,6.571,6.752
	C6.695,7.276,6.902,8.451,5.68,8.866C5.039,9.082,4.522,8.722,4.271,8.513C3.66,8.005,3.841,7.179,3.082,7.068
	C2.657,7.006,2.244,7.28,2.095,7.664c-0.33,0.852,0.26,1.538,0.85,2.113c0.662,0.647,1.774,1.05,1.59,2.171
	c-0.115,0.703-0.968,1.167-1.404,1.5C2.24,14.129,2.026,15.315,2.026,16H4.579z" fill="#FFFFFF"/>
</svg>
