<?xml version="1.0" encoding="utf-8"?>
<!-- Generator: Adobe Illustrator 15.1.0, SVG Export Plug-In . SVG Version: 6.00 Build 0)  -->
<!DOCTYPE svg PUBLIC "-//W3C//DTD SVG 1.1//EN" "http://www.w3.org/Graphics/SVG/1.1/DTD/svg11.dtd">
<svg version="1.1" id="Layer_1" xmlns="http://www.w3.org/2000/svg" xmlns:xlink="http://www.w3.org/1999/xlink" x="0px" y="0px"
	 width="16px" height="16px" viewBox="-0.521 -0.5 16 16" enable-background="new -0.521 -0.5 16 16" xml:space="preserve">
<g>
	<path d="M13.479,8.5h-9c-1.104,0-2,0.895-2,2v3c0,1.104,0.896,2,2,2h9
		c1.104,0,2-0.896,2-2v-3C15.479,9.395,14.584,8.5,13.479,8.5z M11.948,13.563c-0.881,0-1.594-0.715-1.594-1.595
		s0.713-1.594,1.594-1.594c0.88,0,1.594,0.714,1.594,1.594S12.828,13.563,11.948,13.563z" fill="#FFFFFF"/>
	<path d="M10.479,7.5h2v-7c0-0.553-0.448-1-1-1h-11c-0.553,0-1,0.447-1,1v12
		c0,0.553,0.447,1,1,1h1V3.499l9,0V7.5z M2.479,2.5c-0.552,0-1-0.448-1-1s0.448-1,1-1s1,0.448,1,1S3.032,2.5,2.479,2.5z" fill="#FFFFFF"/>
</g>
</svg>
