<?xml version="1.0" encoding="utf-8"?>
<!-- Generator: Adobe Illustrator 15.1.0, SVG Export Plug-In . SVG Version: 6.00 Build 0)  -->
<!DOCTYPE svg PUBLIC "-//W3C//DTD SVG 1.1//EN" "http://www.w3.org/Graphics/SVG/1.1/DTD/svg11.dtd">
<svg version="1.1" id="Layer_1" xmlns="http://www.w3.org/2000/svg" xmlns:xlink="http://www.w3.org/1999/xlink" x="0px" y="0px"
	 width="16px" height="16px" viewBox="0 0 16 16" enable-background="new 0 0 16 16" xml:space="preserve">
<path d="M13.153,4.534c-0.196-0.593,0.569-1.671,0.202-2.163c-0.37-0.499-1.656-0.117-2.165-0.479
	c-0.504-0.359-0.528-1.677-1.134-1.87C10.009,0.007,9.96,0,9.909,0C9.342,0,8.611,0.882,8.017,0.882S6.691,0,6.124,0
	c-0.051,0-0.1,0.007-0.147,0.022c-0.605,0.192-0.63,1.51-1.134,1.869C4.334,2.254,3.047,1.872,2.677,2.37
	C2.31,2.863,3.076,3.941,2.88,4.533c-0.19,0.572-1.463,1.001-1.463,1.635c0,0.633,1.273,1.063,1.463,1.634
	c0.196,0.593-0.57,1.671-0.203,2.163c0.371,0.498,1.657,0.117,2.166,0.479c0.065,0.047,0.122,0.11,0.174,0.185v5.328l3-1.958
	l3,1.958v-5.328c0.052-0.074,0.107-0.137,0.173-0.184c0.509-0.363,1.796,0.019,2.166-0.479c0.367-0.493-0.398-1.571-0.202-2.163
	c0.189-0.572,1.463-1.001,1.463-1.635C14.616,5.535,13.343,5.105,13.153,4.534z M8.017,9.104c-1.657,0-3-1.315-3-2.937
	c0-1.622,1.343-2.937,3-2.937c1.656,0,3,1.314,3,2.937C11.017,7.789,9.673,9.104,8.017,9.104z"/>
</svg>
