<?xml version="1.0" encoding="utf-8"?>
<!-- Generator: Adobe Illustrator 15.1.0, SVG Export Plug-In . SVG Version: 6.00 Build 0)  -->
<!DOCTYPE svg PUBLIC "-//W3C//DTD SVG 1.1//EN" "http://www.w3.org/Graphics/SVG/1.1/DTD/svg11.dtd">
<svg version="1.1" id="Layer_1" xmlns="http://www.w3.org/2000/svg" xmlns:xlink="http://www.w3.org/1999/xlink" x="0px" y="0px"
	 width="16px" height="16px" viewBox="-0.521 -0.5 16 16" enable-background="new -0.521 -0.5 16 16" xml:space="preserve">
<g>
	<path fill-rule="evenodd" clip-rule="evenodd" d="M15.844,1.5H10.5v5.469l2.023-2.071c0.61,0.889,0.969,1.962,0.969,3.122
		c0,3.057-2.479,5.536-5.535,5.536s-5.535-2.479-5.535-5.536c0-3.057,2.479-5.535,5.535-5.535c0.184,0,0.364,0.01,0.543,0.027V0.61
		C8.32,0.598,8.141,0.583,7.959,0.583c-4.12,0-7.459,3.339-7.459,7.458c0,4.119,3.339,7.458,7.459,7.458
		c4.119,0,7.458-3.34,7.458-7.458c0-1.705-0.583-3.267-1.547-4.521L15.844,1.5z" fill="#D7DADE"/>
	<path fill-rule="evenodd" clip-rule="evenodd" d="M7.984,3.546c-0.276,0-0.5,0.224-0.5,0.5v3.907v0.001v0.091
		c0,0.225,0.151,0.408,0.355,0.471l1.912,1.912c0.195,0.195,0.512,0.195,0.707,0s0.195-0.512,0-0.707L8.484,7.748V4.047
		C8.484,3.771,8.261,3.546,7.984,3.546z"  fill="#D7DADE"/>
</g>
</svg>
