<?xml version="1.0" encoding="utf-8"?>
<!-- Generator: Adobe Illustrator 15.1.0, SVG Export Plug-In . SVG Version: 6.00 Build 0)  -->
<!DOCTYPE svg PUBLIC "-//W3C//DTD SVG 1.1//EN" "http://www.w3.org/Graphics/SVG/1.1/DTD/svg11.dtd">
<svg version="1.1" id="Layer_1" xmlns="http://www.w3.org/2000/svg" xmlns:xlink="http://www.w3.org/1999/xlink" x="0px" y="0px"
	 width="16px" height="16px" viewBox="0 0 16 16" enable-background="new 0 0 16 16" xml:space="preserve">
<path fill-rule="evenodd" clip-rule="evenodd" d="M13,0h-1c-1.104,0-2,0.896-2,2v2.526L6,8.635V6c0-1.105-0.895-2-2-2H3
	C1.896,4,1,4.895,1,6v8c0,1.105,0.896,2,2,2h1c1.105,0,2-0.895,2-2v-2.498l4-4.109V10c0,1.104,0.896,2,2,2h1c1.105,0,2-0.896,2-2V2
	C15,0.896,14.105,0,13,0z"/>
</svg>
