<?xml version="1.0" encoding="utf-8"?>
<!-- Generator: Adobe Illustrator 15.1.0, SVG Export Plug-In . SVG Version: 6.00 Build 0)  -->
<!DOCTYPE svg PUBLIC "-//W3C//DTD SVG 1.1//EN" "http://www.w3.org/Graphics/SVG/1.1/DTD/svg11.dtd">
<svg version="1.1" id="Layer_1" xmlns="http://www.w3.org/2000/svg" xmlns:xlink="http://www.w3.org/1999/xlink" x="0px" y="0px"
	 width="16px" height="16px" viewBox="0 0 16 16" enable-background="new 0 0 16 16" xml:space="preserve">
<path d="M14.001,7.055c-0.333,0-0.643,0.091-0.918,0.237l-2.057-2.056
	c0.613-0.549,1.007-1.339,1.007-2.228c0-1.658-1.344-3.002-3.002-3.002c-1.659,0-3.002,1.344-3.002,3.002
	c0,0.885,0.39,1.672,1,2.222L5.253,7.005C4.704,6.396,3.916,6.006,3.031,6.006c-1.658,0-3.002,1.344-3.002,3.001
	c0,1.658,1.344,3.002,3.002,3.002c0.869,0,1.645-0.375,2.193-0.965l2.051,2.051c-0.15,0.277-0.243,0.591-0.243,0.928
	c0,1.088,0.881,1.969,1.969,1.969c1.087,0,1.969-0.881,1.969-1.969c0-0.333-0.091-0.643-0.237-0.918l2.352-2.35
	c0.274,0.146,0.584,0.236,0.917,0.236c1.087,0,1.97-0.881,1.97-1.969C15.971,7.937,15.088,7.055,14.001,7.055z M5.83,7.944
	l2.138-2.137C8.299,5.933,8.655,6.01,9.031,6.01c0.372,0,0.725-0.076,1.053-0.2l2.225,2.223c-0.171,0.292-0.276,0.627-0.276,0.99
	c0,0.363,0.105,0.698,0.276,0.99L9.99,12.331c-0.291-0.171-0.627-0.276-0.989-0.276c-0.358,0-0.69,0.104-0.98,0.271L5.814,10.12
	c0.138-0.345,0.219-0.719,0.219-1.112C6.033,8.632,5.956,8.276,5.83,7.944z" fill="#D7DADE"/>
</svg>