<?xml version="1.0" encoding="utf-8"?>
<!-- Generator: Adobe Illustrator 15.1.0, SVG Export Plug-In . SVG Version: 6.00 Build 0)  -->
<!DOCTYPE svg PUBLIC "-//W3C//DTD SVG 1.1//EN" "http://www.w3.org/Graphics/SVG/1.1/DTD/svg11.dtd">
<svg version="1.1" id="Layer_1" xmlns="http://www.w3.org/2000/svg" xmlns:xlink="http://www.w3.org/1999/xlink" x="0px" y="0px"
	 width="16px" height="16px" viewBox="-0.521 -0.5 16 16" enable-background="new -0.521 -0.5 16 16" xml:space="preserve">
<g>
	<g>
		<path fill-rule="evenodd" clip-rule="evenodd" d="M9.485,11.5c-0.436-0.098-1.57-0.813-2.006-0.956V10.5c1.661-0.908,2-2.457,2-4
			c0-3-1.428-4-3.5-4c-2.073,0-3.5,1-3.5,4c0,1.477,0.543,3.034,2,4c-0.284,0.089-1.426,0.783-2,1c-3,1-3,4-3,4h13
			C12.479,15.5,12.485,12.5,9.485,11.5z"/>
	</g>
	<g>
		<path fill-rule="evenodd" clip-rule="evenodd" d="M10.479,6.541c0,0.677,0,2.434-1.203,3.826c0.184,0.094,0.353,0.176,0.427,0.197
			l0.05,0.012l0.049,0.016c1.225,0.408,2.054,1.125,2.621,1.908h3.051c0,0,0.006-3-1.994-4c0,0-1.564-0.813-2-0.956V7.5
			c1.661-0.908,2-2.457,2-4c0-3-1.428-4-3.5-4c-1.553,0-2.741,0.562-3.241,2.102C9.151,1.897,10.479,3.615,10.479,6.541z"/>
	</g>
</g>
</svg>
